<svg id="Capa_1" enable-background="new 0 0 502.028 502.028" height="512" viewBox="0 0 502.028 502.028" width="512" xmlns="http://www.w3.org/2000/svg"><g><g id="XMLID_148_"><g><path d="m430.503 248.965-15.374 8.608s-132.884 168.796-133.211 170.81-29.745 45.872-29.745 45.872l14.29-2.42 40.44-19.9c63.57-31.29 108.36-91.09 120.51-160.9l6.23-35.78c.48-2.74-.97-5.17-3.14-6.29z" fill="#ade194"/><path d="m430.503 248.965-2.96 4.84-95.74 135.82-79.63 84.63 14.29-36.49s63.6-151.41 159.19-189.05c1.7-.67 3.43-.49 4.85.25z" fill="#97da7b"/></g></g></g><g id="XMLID_8_"><g><path d="m114.452 285.958-43.409-36.723c-1.9 1.22-3.1 3.49-2.66 6.02l6.23 35.78c12.15 69.81 56.94 129.61 120.51 160.9l40.44 19.9 16.61 2.42v-10.247z" fill="#ade194"/><path d="m235.563 437.765 20.17 37.01-3.56-.52-81.95-84.63-95.74-135.82-3.44-4.57c1.5-.96 3.43-1.27 5.33-.52 95.59 37.64 159.19 189.05 159.19 189.05z" fill="#97da7b"/></g></g><g><path d="m265.961 499.265v-226.008h-30.895v226.007c0 1.526 1.237 2.763 2.763 2.763h25.369c1.526.001 2.763-1.236 2.763-2.762z" fill="#ade194"/></g><path d="m271.631 19.216-28.488-18.151-4.9 1.19c-29.8 7.21-53.13 30.35-60.45 59.97l-10.52 103.47 102.67 35.21 15.92-7.91 31.118-32.392z" fill="#f9b1b1"/><g id="XMLID_147_"><path d="m314.213 47.845 17.59 122.3-45.94 22.85c10.85-47.1-9.45-117.32-9.45-117.32-7.68-44.64-30.55-71.56-30.55-71.56l-2.72-3.05 3.45-.84c1.26-.3 2.58-.3 3.84 0l8.35 2.03c24.78 6 45.08 23 55.43 45.59z" fill="#f9c6c6"/></g><path d="m279.923 277.415v12.909c0 15.428-12.506 27.934-27.934 27.934h-6.951c-15.428 0-27.934-12.507-27.934-27.934v-13.196-32.665h62.819z" fill="#97da7b"/><g id="XMLID_140_"><g><path d="m261.7 119.899c-6.479-7.897-16.994-18.492-27.019-28.132-17.031-16.377-21.271-41.935-10.586-63.008 6.007-11.848 12.963-22.962 19.558-27.369l-.509-.324-4.9 1.19c-29.8 7.21-53.13 30.35-60.45 59.97l-1.804 17.744h25.391v97.423l68.563 23.513 15.92-7.91 14.585-15.182c-10.93-20.409-23.852-39.766-38.749-57.915z" fill="#f79595"/><path d="m372.734 15.863-35.48 17.89c-38.63 19.49-68.96 52.23-85.44 92.24 0 0-.66 1.32-1.71 3.42l-29.961 74.378 67.371 58.771 27.96-4.439c28.97-20.72 47.85-54.65 47.85-92.98v-79.28c0-6.85 1.11-13.65 3.29-20.14l14.35-42.72c1.68-4.99-3.53-9.51-8.23-7.14z" fill="#f47c7c"/><path d="m236.476 244.22v26.846h-19.332v5.818 13.196c0 15.428 12.507 27.934 27.934 27.934h6.951c2.212 0 4.361-.265 6.424-.751-6.781-1.597-12.609-10.046-16.482-17.326-2.557-4.807.933-10.569 6.377-10.537.235.001.47.002.705.002 10.548 0 20.906-1.329 30.909-3.886v-8.344-32.952z" fill="#80d261"/><path d="m314.754 253.153c-12.87-45.5-34.97-87.58-64.65-123.74-14.76-17.99-31.4-34.51-49.72-49.27l-69.444-55.942c6.703 13.099 14.301 28.638 14.301 28.638v51.07 72.876l26.825 60.053s59.213 34.056 65.637 36.419l2.262 3.011 22.373 2.369 13.388-2.369c14.523-3.473 27.969-9.714 39.749-18.146z" fill="#ee6161"/><path d="m203.357 245.933c-20.68-20.67-33.47-49.24-33.47-80.79v-79.28c0-6.85-1.11-13.65-3.29-20.14l-5.895-17.547-32.428-26.124c-4.58-3.69-11.15.88-9.28 6.46l12.5 37.21c2.18 6.49 3.29 13.29 3.29 20.14v79.28c0 31.55 12.79 60.12 33.47 80.79 20.68 20.68 49.24 33.47 80.8 33.47 5.96 0 11.833-.459 17.546-1.338-24.518-3.785-46.481-15.369-63.243-32.131z" fill="#e94444"/></g></g></svg>